<svg width="41" height="41" viewBox="0 0 41 41" fill="none" xmlns="http://www.w3.org/2000/svg">
<path d="M20.5003 27.8215C19.927 27.8217 19.3662 27.6537 18.8876 27.3382C18.4089 27.0227 18.0333 26.5737 17.8075 26.0468C17.335 25.9352 16.8699 25.7944 16.4149 25.6251L16.39 25.6163C15.054 25.1148 13.8208 24.3734 12.7513 23.4287C11.3183 22.1646 10.2163 20.5691 9.54143 18.7814C8.86652 16.9937 8.63919 15.0681 8.87923 13.1724C9.11928 11.2767 9.81943 9.46846 10.9186 7.90542C12.0178 6.34238 13.4827 5.07197 15.1855 4.20495C16.8884 3.33793 18.7774 2.90063 20.688 2.93119C22.5986 2.96174 24.4728 3.45922 26.147 4.38024C27.8212 5.30127 29.2447 6.61787 30.2934 8.21526C31.342 9.81265 31.984 11.6423 32.1633 13.5447C32.2204 14.1495 31.724 14.6429 31.1163 14.6429C30.5101 14.6429 30.0255 14.1495 29.9552 13.5462C29.7616 11.8817 29.132 10.2979 28.1301 8.95472C27.1281 7.61157 25.7894 6.55675 24.2491 5.89688C22.7088 5.23702 21.0216 4.99549 19.358 5.19673C17.6945 5.39796 16.1135 6.03483 14.775 7.04294C13.4365 8.05105 12.3878 9.39467 11.7351 10.938C11.0823 12.4813 10.8485 14.1696 11.0574 15.8322C11.2663 17.4948 11.9104 19.0728 12.9247 20.4067C13.939 21.7405 15.2874 22.783 16.8337 23.4287L16.8923 23.4536C17.1851 23.5736 17.4858 23.6795 17.7943 23.7713C18.0764 23.084 18.6091 22.5296 19.2846 22.2204C19.9601 21.9112 20.7279 21.8702 21.4325 22.1059C22.1371 22.3416 22.7257 22.8362 23.0793 23.4896C23.4328 24.143 23.5248 24.9064 23.3366 25.6251C23.1743 26.2538 22.8075 26.8108 22.2941 27.2084C21.7807 27.606 21.1497 27.8217 20.5003 27.8215ZM10.2503 25.6251H11.962C11.1434 24.987 10.3979 24.2602 9.73924 23.4579C8.6699 23.5832 7.68378 24.0968 6.96817 24.9012C6.25256 25.7056 5.85729 26.7449 5.85742 27.8215V28.8685C5.85742 34.3127 12.0221 38.0715 20.5003 38.0715C28.9785 38.0715 35.1431 34.1062 35.1431 28.8685V27.8215C35.1431 26.6565 34.6803 25.5391 33.8565 24.7153C33.0327 23.8915 31.9153 23.4287 30.7503 23.4287H25.413C25.6252 24.1405 25.6801 24.8899 25.574 25.6251H30.7503L30.9626 25.6353C31.5058 25.6881 32.0099 25.9412 32.3767 26.3454C32.7435 26.7495 32.9467 27.2757 32.9467 27.8215V28.8685L32.9394 29.1042C32.7344 32.7942 27.7133 35.8751 20.5003 35.8751C13.0163 35.8751 8.05385 32.784 8.05385 28.8685V27.8215L8.0641 27.6092C8.11686 27.066 8.36997 26.5618 8.77412 26.1951C9.17827 25.8283 9.7045 25.6251 10.2503 25.6251ZM27.8217 14.6429C27.8219 15.9693 27.4619 17.2707 26.78 18.4083C26.0981 19.5459 25.12 20.4769 23.9501 21.1019C23.0063 20.2433 21.7762 19.7677 20.5003 19.7679C21.1733 19.7679 21.8397 19.6354 22.4615 19.3778C23.0833 19.1203 23.6483 18.7428 24.1242 18.2669C24.6001 17.791 24.9776 17.226 25.2352 16.6042C25.4927 15.9824 25.6253 15.316 25.6253 14.6429C25.6253 13.9699 25.4927 13.3035 25.2352 12.6817C24.9776 12.0599 24.6001 11.4949 24.1242 11.019C23.6483 10.5431 23.0833 10.1656 22.4615 9.90806C21.8397 9.65051 21.1733 9.51794 20.5003 9.51794C19.141 9.51794 17.8375 10.0579 16.8764 11.019C15.9152 11.9801 15.3753 13.2837 15.3753 14.6429C15.3753 16.0022 15.9152 17.3057 16.8764 18.2669C17.8375 19.228 19.141 19.7679 20.5003 19.7679C19.1707 19.7679 17.9612 20.2746 17.0519 21.1034C15.8826 20.4789 14.9049 19.5487 14.2229 18.412C13.6422 17.4447 13.293 16.3562 13.2025 15.2316C13.1119 14.1071 13.2825 12.9768 13.7009 11.929C14.1193 10.8812 14.7742 9.94428 15.6144 9.19137C16.4547 8.43846 17.4575 7.88993 18.5448 7.58859C19.632 7.28725 20.7742 7.24126 21.8821 7.4542C22.9901 7.66714 24.0338 8.13326 24.9319 8.81617C25.83 9.49908 26.5581 10.3803 27.0593 11.391C27.5606 12.4018 27.8215 13.5147 27.8217 14.6429Z" fill="#B1ADCD"/>
</svg>
